<svg version="1.1" id="Layer_1" xmlns="http://www.w3.org/2000/svg" xmlns:xlink="http://www.w3.org/1999/xlink" x="0px" y="0px"
	 width="100%" viewBox="0 0 1024 1024" enable-background="new 0 0 1024 1024" xml:space="preserve">
<path fill="#FEFEFE" opacity="1.000000" stroke="none" 
	d="
M602.000000,1025.000000 
	C401.333344,1025.000000 201.166672,1025.000000 1.000000,1025.000000 
	C1.000000,683.666687 1.000000,342.333344 1.000000,1.000000 
	C342.333344,1.000000 683.666687,1.000000 1025.000000,1.000000 
	C1025.000000,342.333344 1025.000000,683.666687 1025.000000,1025.000000 
	C884.166687,1025.000000 743.333313,1025.000000 602.000000,1025.000000 
M205.009216,833.248413 
	C202.347382,827.158081 199.685532,821.067810 196.994995,814.246704 
	C196.172165,812.279785 195.443054,810.267029 194.507309,808.355408 
	C192.464325,804.181946 190.316223,800.059937 188.117889,795.137207 
	C185.138199,788.398315 182.158508,781.659363 179.129837,774.134521 
	C175.757248,765.858765 172.435333,757.561340 168.926819,749.343628 
	C168.606796,748.594055 167.093811,747.949646 166.128906,747.941345 
	C154.861542,747.844666 143.593033,747.879395 131.301453,747.879395 
	C138.490860,764.133118 145.319641,779.571533 152.202240,795.726624 
	C155.350861,802.826111 158.499481,809.925598 161.769226,817.786255 
	C164.767838,824.547791 167.766449,831.309387 170.898117,838.806885 
	C173.204529,843.975708 175.510925,849.144531 177.894485,855.010010 
	C179.116821,857.709167 180.339157,860.408264 181.762100,863.834900 
	C183.876801,868.563538 185.991486,873.292114 188.133240,878.634705 
	C188.386948,878.943726 188.640640,879.252747 188.807693,879.822205 
	C188.807693,879.822205 189.018463,879.998047 189.084351,880.734497 
	C189.873047,882.566406 190.360046,884.631714 191.542084,886.159241 
	C192.561539,887.476562 194.350983,888.987305 195.836761,889.026672 
	C205.651917,889.286865 215.479980,889.293640 225.295654,889.051331 
	C226.790833,889.014404 228.931580,887.593689 229.593979,886.236938 
	C232.142944,881.015991 234.208710,875.559509 236.461380,870.193604 
	C242.506012,855.794983 248.554062,841.397705 255.086655,826.376953 
	C255.645309,824.888428 256.144379,823.374268 256.772827,821.915771 
	C259.622131,815.303406 262.507965,808.706848 265.848999,801.632263 
	C268.779449,794.817261 271.709900,788.002258 275.018402,780.567200 
	C279.664825,769.856689 284.311279,759.146118 289.201508,747.873657 
	C277.482971,747.873657 266.679504,747.791809 255.881134,747.987549 
	C254.665329,748.009521 252.869202,749.338806 252.369537,750.502808 
	C245.754074,765.914062 239.322601,781.404236 232.881851,796.884216 
	C232.881851,796.884216 232.859283,796.884155 232.351898,797.301514 
	C231.928162,798.536743 231.504425,799.771912 230.664886,801.591492 
	C226.121170,812.394653 221.577454,823.197815 216.643768,834.515930 
	C216.384262,835.326233 216.124741,836.136475 215.356140,837.391479 
	C214.292969,839.929626 213.229797,842.467834 211.935699,845.381531 
	C211.935699,845.381531 211.934036,845.822388 211.211136,845.971008 
	C209.161972,841.977905 207.112823,837.984863 205.009216,833.248413 
M559.183716,877.710571 
	C561.281921,889.209839 569.311279,890.474792 578.874512,889.163269 
	C580.013550,889.007080 581.191895,889.136414 582.352051,889.136292 
	C588.193848,889.135681 594.035645,889.135986 600.900879,889.135986 
	C597.016785,880.679626 593.583801,873.205505 590.078857,865.013916 
	C587.450562,859.223083 584.822327,853.432312 581.757446,847.059814 
	C577.502563,837.374512 573.247620,827.689148 568.965881,817.260925 
	C564.668884,807.794128 560.371887,798.327271 556.019104,788.131592 
	C550.577576,775.836914 545.071594,763.570068 539.749084,751.224060 
	C538.684631,748.755066 537.436462,747.698975 534.616211,747.751221 
	C524.314636,747.942444 514.006958,747.923767 503.703583,747.805420 
	C501.171143,747.776367 499.956665,748.599548 498.949341,750.972229 
	C491.712830,768.017883 484.300995,784.989075 476.464935,802.481628 
	C471.606689,813.973328 466.748444,825.465088 461.401398,837.441101 
	C453.973053,854.446899 446.544708,871.452637 438.817261,889.143127 
	C450.541595,889.143127 461.470001,889.247437 472.390533,888.999939 
	C473.634949,888.971680 475.346222,887.204529 475.968384,885.844482 
	C479.007019,879.201965 482.130432,872.552002 484.450714,865.644897 
	C485.797729,861.635071 487.884552,860.907959 491.648010,860.933167 
	C510.761963,861.061279 529.877686,860.931580 549.764709,861.037781 
	C551.064026,861.956543 552.942627,862.591492 553.557312,863.845764 
	C555.648193,868.112183 557.293030,872.597229 559.183716,877.710571 
M133.731277,351.088318 
	C146.489059,354.993683 159.246857,358.899078 172.674881,363.152924 
	C183.400772,366.629608 194.102371,370.183990 204.862915,373.549957 
	C210.182770,375.214020 215.611374,376.530487 221.196442,378.266998 
	C221.196442,378.266998 221.502747,378.392639 221.502747,378.392639 
	C221.502747,378.392639 221.816605,378.287567 222.525391,378.763489 
	C223.627609,379.045715 224.729843,379.327942 226.431992,379.959259 
	C241.746490,384.764893 257.061005,389.570526 273.019592,394.789948 
	C293.807220,401.439301 314.616211,408.023560 335.349762,414.837463 
	C337.450623,415.527863 339.648346,417.242523 340.857819,419.097015 
	C345.992767,426.970734 350.771912,435.076477 355.882111,443.789764 
	C369.069641,465.906189 382.257172,488.022583 395.737366,510.813873 
	C399.668640,517.519287 403.561981,524.247314 407.538025,530.926086 
	C421.127594,553.753296 434.746185,576.563232 448.670685,600.105530 
	C462.660492,623.940125 476.650299,647.774780 491.021515,672.259216 
	C498.728607,657.859863 505.991028,644.410156 513.142090,630.901489 
	C522.553284,613.123291 531.876831,595.298706 541.767395,577.010742 
	C543.957214,572.899109 546.159973,568.794312 548.334656,564.674683 
	C561.603943,539.538147 574.866821,514.398254 588.680176,488.834167 
	C600.162842,467.631195 611.645508,446.428223 623.673279,424.801514 
	C629.363281,414.439575 635.070312,404.086945 640.739075,393.713409 
	C648.054199,380.327118 658.186829,370.794312 673.361816,366.261566 
	C697.411743,359.078033 721.142151,350.824738 745.789673,343.016113 
	C789.482483,330.255188 833.175232,317.494263 877.555786,304.532471 
	C873.318665,299.422668 869.271362,294.809692 865.549683,289.947418 
	C863.508606,287.280701 861.532349,286.849091 858.305176,287.779785 
	C832.892700,295.108398 807.355713,302.009216 781.985046,309.476440 
	C764.283081,314.686584 746.783020,320.582336 728.324890,326.222626 
	C708.050659,333.233032 687.740845,340.143005 667.520935,347.306824 
	C660.160400,349.914612 653.041992,353.198486 645.765015,356.051025 
	C620.568115,365.928070 609.399963,387.916168 598.191772,410.833679 
	C588.400574,429.532013 578.609436,448.230347 568.233093,467.297729 
	C565.122620,473.310699 562.031006,479.333435 558.898438,485.334900 
	C546.602722,508.891541 534.294067,532.441467 521.455933,556.425598 
	C511.267059,576.288330 501.078156,596.151062 490.679016,616.423706 
	C480.477600,598.854065 470.660889,581.946899 460.715271,564.358032 
	C452.565735,550.113831 444.480591,535.832275 436.247345,521.636658 
	C429.005554,509.150421 421.598114,496.760254 414.215729,483.649567 
	C405.912933,469.037720 398.159454,454.076874 389.158813,439.908325 
	C379.409821,424.561798 373.185974,406.907135 359.184784,394.263123 
	C354.094299,389.666046 348.695740,386.289764 341.387299,384.572174 
	C320.093842,377.964874 298.800415,371.357574 276.939209,364.242645 
	C255.957535,357.885590 234.975861,351.528534 213.315399,344.840088 
	C197.542374,340.232147 181.769363,335.624207 165.397308,330.598846 
	C154.266098,327.458984 143.134872,324.319092 131.319305,320.838501 
	C126.855782,319.584717 122.417572,318.225555 117.912865,317.143219 
	C116.609909,316.830170 114.647331,316.768158 113.783157,317.513733 
	C106.183334,324.070404 98.763535,330.835724 90.573631,338.182251 
	C105.327362,342.598633 119.164810,346.740753 133.731277,351.088318 
M319.942566,773.758301 
	C326.844330,784.540222 333.746094,795.322083 340.862183,806.787292 
	C346.175476,814.979187 351.488739,823.171082 356.988007,832.045471 
	C358.022186,835.542786 359.469238,838.980835 359.981232,842.553040 
	C360.561157,846.599365 360.302795,850.765808 360.222839,855.689209 
	C360.222839,866.732605 360.222839,877.776001 360.222839,888.907349 
	C372.061646,888.907349 383.282593,888.907349 394.865387,888.907349 
	C394.865387,875.777588 394.865387,862.892822 395.024445,849.089172 
	C394.161560,840.548462 395.608734,832.730835 401.997406,826.402161 
	C402.549255,825.855530 402.752777,824.957336 403.685730,823.836426 
	C412.602966,809.603210 421.520203,795.370056 430.939850,780.736206 
	C437.765228,769.996704 444.590607,759.257202 451.799530,747.914124 
	C440.004730,747.914124 428.787659,747.874573 417.572144,747.987427 
	C416.652466,747.996704 415.402740,748.824890 414.880127,749.640259 
	C406.920105,762.061035 399.055817,774.543091 390.714569,787.528198 
	C386.700439,793.724182 382.686310,799.920105 378.419495,806.506165 
	C375.546783,802.060730 372.964874,798.065369 370.205139,793.479797 
	C365.167236,785.640869 360.129333,777.801941 354.930298,769.278992 
	C351.015259,763.200928 347.154053,757.086975 343.141815,751.073792 
	C342.295532,749.805481 340.913269,747.999817 339.748291,747.977295 
	C327.888123,747.748169 316.021820,747.837341 302.871735,747.837341 
	C308.976837,756.948303 314.376953,765.007141 319.942566,773.758301 
M645.260620,823.264465 
	C645.260620,823.264465 645.542786,823.438049 645.542786,823.438049 
	C645.542786,823.438049 645.869873,823.386047 646.483521,823.829346 
	C646.978760,823.909424 647.473999,823.989502 648.500244,824.574036 
	C653.489136,826.096680 658.446228,827.734924 663.473450,829.118103 
	C674.295532,832.095764 685.153748,834.942322 696.542053,838.275818 
	C702.083374,841.175354 706.331482,844.893311 704.898315,852.617432 
	C702.963562,857.313904 699.080933,860.092590 694.469849,860.844299 
	C687.059570,862.052368 679.497803,862.330688 671.251770,862.730591 
	C655.771362,861.624207 641.895020,855.869141 628.605957,847.462097 
	C624.659180,856.567993 620.910278,865.217285 616.600708,875.160156 
	C625.295654,878.701416 633.650391,882.104065 642.706360,885.891541 
	C658.342285,890.500488 674.279114,892.069214 690.504456,890.515808 
	C700.678406,889.541626 710.490906,887.267883 719.417664,882.014404 
	C733.530823,873.708740 741.846863,862.045898 741.005493,844.165894 
	C740.602661,837.394897 738.789734,831.142456 733.953491,825.276062 
	C724.303345,813.786926 711.361694,808.976013 696.285645,806.746948 
	C688.182739,804.528564 679.965027,802.650391 672.017883,799.970093 
	C666.869507,798.233704 662.116394,795.325195 656.976196,792.224060 
	C653.573669,785.346313 655.522461,779.422119 662.466309,776.183105 
	C671.606079,771.919800 681.421509,771.879333 690.897278,773.651733 
	C701.713806,775.674927 712.242920,779.234497 723.615112,782.321350 
	C726.652710,774.715027 730.133179,765.999756 733.660950,757.166077 
	C732.001221,756.250488 730.883667,755.551941 729.699951,754.993530 
	C715.134705,748.122009 699.674683,745.327271 683.690613,745.020874 
	C670.925903,744.776245 658.392273,746.175964 646.492004,751.109863 
	C626.275269,759.491943 615.959106,778.706726 621.165955,798.737793 
	C624.751648,811.152527 633.610535,818.360596 645.260620,823.264465 
M567.978271,618.093628 
	C568.215637,617.385559 568.452942,616.677429 569.307007,615.640808 
	C572.390381,610.538391 575.567993,605.490112 578.538574,600.322937 
	C585.846619,587.610657 593.059326,574.843567 600.913696,561.811340 
	C606.050598,553.249023 611.278809,544.739807 616.303894,536.112366 
	C624.830383,521.473511 633.116333,506.693909 641.710083,492.095154 
	C651.979919,474.649048 662.467041,457.330811 673.352478,439.469299 
	C677.796448,432.118042 682.158264,424.714569 686.765198,417.466919 
	C687.532288,416.260254 689.264099,415.421722 690.723938,414.939819 
	C700.951538,411.563873 711.243347,408.383087 721.478821,405.030334 
	C734.670532,400.709198 747.828857,396.285919 761.776306,392.042755 
	C782.844604,385.344727 803.912842,378.646698 825.750793,371.918488 
	C842.603577,366.594025 859.456299,361.269592 877.147705,355.921356 
	C896.416870,350.088837 915.686035,344.256317 935.845337,338.154358 
	C930.608887,333.479462 925.691101,330.080383 922.059143,325.631653 
	C915.352234,317.416626 908.200500,316.370728 898.197510,319.742157 
	C878.344482,326.433533 858.001953,331.672394 837.067322,337.655487 
	C819.672485,342.916443 802.277710,348.177429 784.076477,353.573608 
	C766.699341,358.987762 749.322266,364.401917 731.149963,369.850311 
	C716.746643,374.399536 702.463440,379.385742 687.909119,383.385590 
	C670.346252,388.212250 658.850769,399.296326 651.242615,416.066467 
	C638.007874,439.159485 624.726746,462.226135 611.563049,485.359589 
	C606.819580,493.695618 602.478333,502.260376 597.741516,510.600342 
	C589.543884,525.033813 581.180908,539.373474 572.314758,554.167114 
	C569.124451,559.785339 565.900818,565.384949 562.750610,571.025574 
	C555.707642,583.636536 548.701172,596.268066 541.171387,609.312866 
	C529.832764,629.161255 518.494141,649.009583 506.574158,669.875732 
	C516.872986,669.875732 526.152771,669.935486 535.429504,669.795837 
	C536.521057,669.779419 538.066162,668.944519 538.609192,668.022644 
	C548.314697,651.546448 557.897705,634.998108 567.481506,618.424072 
	C567.481506,618.424072 567.504822,618.382935 567.978271,618.093628 
M804.289124,776.467590 
	C800.745483,784.614441 797.201904,792.761353 793.202759,801.404541 
	C789.723877,809.606384 786.244995,817.808289 782.274719,826.477600 
	C778.727417,834.990295 775.180115,843.503052 771.205688,852.514160 
	C765.945801,864.465393 760.685852,876.416687 755.072632,889.170776 
	C763.716675,889.170776 771.320496,889.158264 778.924255,889.173706 
	C790.668945,889.197510 790.667908,889.205200 795.015564,878.587036 
	C795.519104,877.357361 796.031189,876.130920 796.555054,874.909729 
	C798.452881,870.485657 799.215576,864.343445 802.573547,862.115723 
	C806.087708,859.784363 812.098083,861.217346 817.017090,860.997742 
	C817.347473,860.983093 817.675049,860.907593 818.931641,860.999451 
	C835.286560,860.972961 851.641479,860.946472 868.552124,861.371643 
	C871.971191,869.494751 875.329712,877.644409 878.870117,885.714294 
	C879.446167,887.027283 880.807861,888.943176 881.838745,888.963867 
	C893.383972,889.195740 904.935547,889.110291 917.158752,889.110291 
	C911.593689,876.590515 906.341248,864.773987 901.009094,852.232422 
	C896.314392,841.820984 891.619690,831.409546 886.850403,820.279480 
	C882.958557,811.851624 879.066711,803.423767 875.075623,794.252258 
	C870.968872,784.834473 866.862122,775.416626 862.645996,765.308350 
	C860.481323,760.449402 858.464905,755.515015 856.055664,750.780518 
	C855.390503,749.473511 853.569946,747.931580 852.254333,747.908142 
	C841.272705,747.711975 830.284302,747.786499 819.300903,747.966492 
	C818.132507,747.985596 816.360962,748.927673 815.923401,749.910828 
	C812.078369,758.550842 808.472534,767.297302 804.289124,776.467590 
M248.634140,333.291931 
	C256.573059,335.733612 264.513458,338.170593 272.450592,340.618073 
	C287.970337,345.403809 303.488342,350.195312 319.615509,355.383179 
	C331.143646,359.170929 342.574341,363.295990 354.224640,366.660736 
	C368.679810,370.835541 378.185516,380.402252 385.169464,393.118652 
	C391.253448,404.196381 397.362335,415.260437 403.444824,426.338989 
	C414.699890,446.838745 425.941864,467.345673 437.192902,487.847626 
	C446.384308,504.596497 455.580963,521.342468 464.932068,538.795654 
	C474.199677,555.956482 483.467285,573.117310 493.269592,591.268188 
	C498.127319,581.467346 502.506165,572.771118 506.697357,563.985413 
	C507.172699,562.988953 506.979706,561.289612 506.444550,560.252869 
	C498.734009,545.314514 490.911652,530.433960 483.021576,514.867676 
	C471.957977,493.616730 460.996460,472.311859 449.801208,451.130524 
	C439.238739,431.146332 428.283447,411.369293 417.775238,391.357086 
	C408.834473,374.329895 396.016296,361.723389 377.926819,354.786499 
	C364.120422,349.492096 350.335358,344.134979 336.440582,339.081299 
	C329.768707,336.654633 322.865112,334.865051 315.744263,332.128571 
	C312.373901,330.924805 309.038330,329.610504 305.627136,328.536469 
	C291.107880,323.964905 276.566254,319.464508 261.531708,314.509674 
	C258.766785,313.651642 256.017151,312.740234 253.234573,311.943787 
	C224.593323,303.746338 195.951859,295.549500 167.284622,287.443848 
	C166.031784,287.089630 163.925034,287.071014 163.239731,287.825684 
	C158.467377,293.080963 153.965622,298.582001 148.862808,304.612030 
	C159.781662,307.718353 169.826263,310.567474 179.865906,313.433899 
	C202.577454,319.918182 225.286606,326.410950 248.634140,333.291931 
M780.036438,262.438080 
	C743.773865,273.131622 707.978516,285.164215 673.625671,301.060760 
	C659.279358,307.699432 645.149841,314.953796 634.142822,326.818726 
	C628.330383,333.084167 624.120850,340.261444 621.714722,348.583160 
	C622.529846,348.766846 622.894714,348.978027 623.115173,348.876282 
	C624.015747,348.460480 624.898132,347.990723 625.741211,347.466858 
	C652.990906,330.533295 682.118225,317.505035 712.331055,307.030945 
	C739.033203,297.773987 766.089539,289.538483 793.767517,280.873260 
	C811.844604,275.931549 829.921631,270.989838 848.846924,265.816254 
	C844.421082,258.455566 840.274231,251.558960 836.150696,243.956131 
	C812.610962,201.593170 789.071167,159.230209 765.109741,116.108353 
	C742.738159,125.203064 720.895447,133.682434 699.399597,142.965073 
	C685.539734,148.950241 672.188721,156.113892 657.932373,162.900894 
	C624.982300,179.691635 593.603027,198.974243 565.069031,222.583817 
	C556.273926,229.860992 548.335449,238.173416 539.399170,246.289642 
	C530.616028,256.450470 521.832886,266.611267 512.955933,276.880676 
	C512.896790,276.824677 512.328064,276.448700 511.973297,275.927185 
	C493.056915,248.124069 468.248657,226.293198 441.275360,206.782745 
	C398.812225,176.068100 352.224609,152.912552 304.003174,132.845291 
	C302.525543,132.230377 300.794952,132.223236 299.031860,131.455811 
	C298.355652,131.304703 297.679443,131.153580 296.566132,130.862778 
	C296.566132,130.862778 296.116089,130.773026 295.954956,130.098160 
	C285.314423,126.021523 274.700287,121.871735 263.984985,118.002136 
	C263.093231,117.680107 260.990997,118.930412 260.347351,119.993027 
	C256.481812,126.374680 252.835968,132.891403 249.195221,139.406845 
	C238.845779,157.928024 228.534256,176.470383 217.759857,195.501099 
	C204.681473,218.858475 191.603104,242.215836 178.342209,265.899200 
	C180.063446,266.432892 180.990173,266.740692 181.928360,267.008240 
	C212.292450,275.665741 242.655228,284.327911 273.024139,292.968506 
	C282.760620,295.738708 292.626068,298.112152 302.222931,301.298340 
	C309.560181,303.734344 316.567352,307.164459 324.216492,310.684631 
	C352.180817,320.957031 378.933014,333.792786 405.541046,349.885040 
	C401.719177,336.860321 394.943634,327.386108 385.429871,320.054047 
	C367.569489,306.289368 346.993561,297.637299 325.605042,289.158783 
	C288.612061,276.648102 251.619110,264.137451 214.542572,251.598541 
	C220.484482,240.648209 226.804077,229.001877 233.670364,216.906357 
	C246.885254,193.544067 260.100159,170.181778 273.412262,146.647644 
	C281.799835,149.663681 289.888153,152.572113 298.477509,155.901764 
	C305.077820,158.662903 311.700409,161.372040 318.274841,164.193497 
	C367.469879,185.305771 414.185059,210.618683 454.824249,245.962631 
	C477.790283,265.936340 497.210205,288.764343 509.294373,317.138641 
	C510.521881,320.020966 511.871155,322.851440 513.234802,325.862579 
	C513.698486,325.330078 513.975525,325.130371 514.090454,324.861420 
	C515.137085,322.412292 516.173767,319.958496 517.179321,317.492249 
	C525.942627,295.999023 540.128418,278.199249 556.062866,260.927155 
	C566.867249,251.340439 577.309937,241.304199 588.550537,232.259613 
	C612.754211,212.784470 639.857239,197.784668 667.709778,182.980133 
	C695.464355,169.353226 723.756836,157.008865 753.319824,146.648285 
	C759.080811,156.748856 764.691711,166.550262 770.268372,176.371155 
	C781.764709,196.617126 793.242798,216.873520 804.941345,237.811401 
	C807.589417,242.700684 810.237427,247.589951 812.939636,252.579178 
	C801.981018,255.905807 791.413208,259.113800 780.036438,262.438080 
z"/>
<path fill="#444EC8" opacity="1.000000" stroke="none" 
	d="
M296.116089,130.773026 
	C296.116089,130.773026 296.566132,130.862778 296.972656,131.186646 
	C297.980255,131.651245 298.581268,131.791992 299.182312,131.932739 
	C300.794952,132.223236 302.525543,132.230377 304.003174,132.845291 
	C352.224609,152.912552 398.812225,176.068100 441.275360,206.782745 
	C468.248657,226.293198 493.056915,248.124069 511.973297,275.927185 
	C512.328064,276.448700 512.896790,276.824677 512.955933,276.880676 
	C521.832886,266.611267 530.616028,256.450470 539.920532,246.416870 
	C543.236816,248.160034 545.899658,250.103485 548.864197,251.298508 
	C551.745056,252.459778 552.910706,254.130676 553.124084,257.172485 
	C553.221863,258.565887 554.666748,259.864807 555.500671,261.206573 
	C540.128418,278.199249 525.942627,295.999023 517.179321,317.492249 
	C516.173767,319.958496 515.137085,322.412292 514.090454,324.861420 
	C513.975525,325.130371 513.698486,325.330078 513.234802,325.862579 
	C511.871155,322.851440 510.521881,320.020966 509.294373,317.138641 
	C497.210205,288.764343 477.790283,265.936340 454.824249,245.962631 
	C414.185059,210.618683 367.469879,185.305771 318.274841,164.193497 
	C311.700409,161.372040 305.077820,158.662903 298.235840,155.277740 
	C296.162567,150.855331 294.431885,147.001602 292.406982,143.309219 
	C292.040039,142.640152 290.440125,142.699677 289.458801,142.301315 
	C288.326050,141.841461 287.247894,141.246979 286.146057,140.710953 
	C286.969391,139.573700 288.052826,137.342255 288.576202,137.466690 
	C294.484253,138.871231 294.582214,134.058731 296.116089,130.773026 
z"/>
<path fill="#5943C4" opacity="1.000000" stroke="none" 
	d="
M464.775299,538.089722 
	C455.580963,521.342468 446.384308,504.596497 437.192902,487.847626 
	C425.941864,467.345673 414.699890,446.838745 403.444824,426.338989 
	C397.362335,415.260437 391.253448,404.196381 385.169464,393.118652 
	C378.185516,380.402252 368.679810,370.835541 354.224640,366.660736 
	C342.574341,363.295990 331.143646,359.170929 319.488953,354.923004 
	C322.387054,352.284119 319.523529,351.150696 318.416046,349.980133 
	C311.509796,342.680634 311.232513,340.941528 316.066437,332.786987 
	C322.865112,334.865051 329.768707,336.654633 336.440582,339.081299 
	C350.335358,344.134979 364.120422,349.492096 377.926819,354.786499 
	C396.016296,361.723389 408.834473,374.329895 417.775238,391.357086 
	C428.283447,411.369293 439.238739,431.146332 449.801208,451.130524 
	C460.996460,472.311859 471.957977,493.616730 483.014008,515.621826 
	C482.424469,518.431641 482.183105,520.673584 481.184143,522.501404 
	C479.508728,525.567017 477.796967,528.857178 475.281342,531.156677 
	C472.222626,533.952637 468.315430,535.820374 464.775299,538.089722 
z"/>
<path fill="#456ADE" opacity="1.000000" stroke="none" 
	d="
M658.609680,162.749374 
	C672.188721,156.113892 685.539734,148.950241 699.399597,142.965073 
	C720.895447,133.682434 742.738159,125.203064 765.109741,116.108353 
	C789.071167,159.230209 812.610962,201.593170 836.063965,244.685516 
	C834.756409,245.794388 833.180603,246.857986 832.373901,246.439392 
	C827.999878,244.169876 823.482422,241.955017 819.650818,238.918259 
	C814.821106,235.090500 809.979858,235.372330 804.728394,237.125595 
	C793.242798,216.873520 781.764709,196.617126 770.268372,176.371155 
	C764.691711,166.550262 759.080811,156.748856 753.319824,146.648285 
	C723.756836,157.008865 695.464355,169.353226 667.353760,182.515640 
	C667.312195,178.642105 666.862549,175.609329 663.888245,173.240601 
	C662.890137,172.445740 662.635193,170.734177 662.002380,169.460587 
	C660.886963,167.215820 659.742188,164.985641 658.609680,162.749374 
z"/>
<path fill="#7540BC" opacity="1.000000" stroke="none" 
	d="
M572.887329,553.752441 
	C581.180908,539.373474 589.543884,525.033813 597.741516,510.600342 
	C602.478333,502.260376 606.819580,493.695618 611.563049,485.359589 
	C624.726746,462.226135 638.007874,439.159485 651.667175,416.172516 
	C655.660461,420.316895 658.862976,424.782562 662.916016,428.255646 
	C666.046204,430.937897 671.778870,436.427765 672.860046,439.957184 
	C662.467041,457.330811 651.979919,474.649048 641.710083,492.095154 
	C633.116333,506.693909 624.830383,521.473511 616.303894,536.112366 
	C611.278809,544.739807 606.050598,553.249023 600.210693,561.930176 
	C597.523315,562.779480 595.407471,563.271973 593.578064,564.282776 
	C586.712219,568.076172 580.691589,566.257263 577.105713,559.372559 
	C576.038147,557.322815 574.311829,555.616272 572.887329,553.752441 
z"/>
<path fill="#4442BE" opacity="1.000000" stroke="none" 
	d="
M323.721344,310.152374 
	C316.567352,307.164459 309.560181,303.734344 302.222931,301.298340 
	C292.626068,298.112152 282.760620,295.738708 273.024139,292.968506 
	C242.655228,284.327911 212.292450,275.665741 181.928360,267.008240 
	C180.990173,266.740692 180.063446,266.432892 178.342209,265.899200 
	C191.603104,242.215836 204.681473,218.858475 218.404190,195.251892 
	C227.384354,192.632996 229.145599,201.691086 234.724564,204.150925 
	C235.005539,204.274796 234.933914,206.234848 234.438736,206.906937 
	C232.016785,210.194168 232.602798,213.757828 233.123657,217.355530 
	C226.804077,229.001877 220.484482,240.648209 214.542572,251.598541 
	C251.619110,264.137451 288.612061,276.648102 325.834564,289.776978 
	C325.698944,294.501617 323.509674,295.230133 319.940674,293.887604 
	C317.563782,292.993500 314.943604,291.779755 312.784546,295.735107 
	C315.590057,298.127197 318.065582,301.154236 321.257690,302.725464 
	C325.163177,304.647827 326.188324,306.569946 323.721344,310.152374 
z"/>
<path fill="#4D31B4" opacity="1.000000" stroke="none" 
	d="
M460.844147,565.039734 
	C470.660889,581.946899 480.477600,598.854065 490.679016,616.423706 
	C501.078156,596.151062 511.267059,576.288330 522.094421,556.251648 
	C526.477356,556.960144 525.982727,560.343628 527.173279,562.932068 
	C528.696472,566.243774 531.223145,569.220093 533.789490,571.886536 
	C535.917358,574.097351 538.729248,575.649902 541.238098,577.494080 
	C531.876831,595.298706 522.553284,613.123291 513.142090,630.901489 
	C505.991028,644.410156 498.728607,657.859863 491.021515,672.259216 
	C476.650299,647.774780 462.660492,623.940125 449.004700,599.650879 
	C451.413513,597.341064 453.501862,595.500671 455.552887,593.619507 
	C456.024902,593.186584 456.721008,592.611267 456.717316,592.105774 
	C456.677704,586.639587 457.348358,580.988403 456.175873,575.757263 
	C454.805969,569.645386 455.081146,567.443359 460.844147,565.039734 
z"/>
<path fill="#5737B8" opacity="1.000000" stroke="none" 
	d="
M568.992676,818.003845 
	C573.247620,827.689148 577.502563,837.374512 581.773193,847.677979 
	C580.617249,848.884460 579.471802,849.533447 578.269958,850.051697 
	C567.403320,854.738037 555.910461,854.067322 544.478760,854.055420 
	C542.747803,854.053650 541.016113,854.755127 539.284729,855.131287 
	C539.407043,855.753662 539.529358,856.375977 539.651672,856.998352 
	C541.602112,856.998352 543.564636,857.135742 545.500305,856.966736 
	C548.552002,856.700317 549.270203,858.303101 548.992737,860.892212 
	C529.877686,860.931580 510.761963,861.061279 491.648010,860.933167 
	C487.884552,860.907959 485.797729,861.635071 484.450714,865.644897 
	C482.130432,872.552002 479.007019,879.201965 475.968384,885.844482 
	C475.346222,887.204529 473.634949,888.971680 472.390533,888.999939 
	C461.470001,889.247437 450.541595,889.143127 438.817261,889.143127 
	C446.544708,871.452637 453.973053,854.446899 462.091919,837.210815 
	C478.066895,834.591614 493.386993,834.880981 508.774994,835.893250 
	C517.215393,836.448425 525.723633,836.066284 534.198181,835.924072 
	C535.807434,835.897095 537.402283,835.012085 539.387573,834.426819 
	C539.976074,833.306213 540.539551,832.193665 540.313660,831.275146 
	C539.786926,829.133362 538.880615,827.084900 538.559570,824.999084 
	C543.847351,824.333008 548.737427,823.844482 553.546326,822.929138 
	C556.169800,822.429749 558.639282,821.156372 561.208191,820.324768 
	C563.783630,819.491089 566.396301,818.772766 568.992676,818.003845 
z"/>
<path fill="#5B4CCD" opacity="1.000000" stroke="none" 
	d="
M745.007751,343.024017 
	C721.142151,350.824738 697.411743,359.078033 673.361816,366.261566 
	C658.186829,370.794312 648.054199,380.327118 640.739075,393.713409 
	C635.070312,404.086945 629.363281,414.439575 623.235840,424.650757 
	C620.962524,417.930389 618.131592,415.446442 612.573120,416.088745 
	C610.529907,416.324829 608.538452,417.341125 606.616882,418.208618 
	C604.439087,419.191895 602.996155,419.159027 602.020203,416.543304 
	C601.212830,414.379395 599.861511,412.418457 598.751221,410.367584 
	C609.399963,387.916168 620.568115,365.928070 645.765015,356.051025 
	C653.041992,353.198486 660.160400,349.914612 667.520935,347.306824 
	C687.740845,340.143005 708.050659,333.233032 728.709717,326.619446 
	C730.350037,332.260773 735.131714,333.489746 739.124695,334.704071 
	C743.756409,336.112610 745.862671,338.242188 745.007751,343.024017 
z"/>
<path fill="#4948C9" opacity="1.000000" stroke="none" 
	d="
M621.175232,798.004944 
	C615.959106,778.706726 626.275269,759.491943 646.492004,751.109863 
	C658.392273,746.175964 670.925903,744.776245 683.690613,745.020874 
	C699.674683,745.327271 715.134705,748.122009 729.699951,754.993530 
	C730.883667,755.551941 732.001221,756.250488 733.660950,757.166077 
	C730.133179,765.999756 726.652710,774.715027 723.615112,782.321350 
	C712.242920,779.234497 701.713806,775.674927 690.897278,773.651733 
	C681.421509,771.879333 671.606079,771.919800 662.466309,776.183105 
	C655.522461,779.422119 653.573669,785.346313 656.621765,792.600769 
	C653.661560,793.222717 651.047607,793.402100 648.451477,793.725098 
	C639.314697,794.861816 630.948303,800.905334 621.175232,798.004944 
z"/>
<path fill="#8035AF" opacity="1.000000" stroke="none" 
	d="
M771.632812,852.015808 
	C775.180115,843.503052 778.727417,834.990295 783.004211,826.241699 
	C793.569092,826.856873 802.921570,824.656311 811.616577,820.425720 
	C815.525085,818.523926 816.653870,819.526917 817.455200,823.270508 
	C816.001770,827.042908 814.626709,830.494995 813.073364,834.394592 
	C828.193054,834.394592 842.655579,834.394592 857.537231,834.394592 
	C856.977844,832.394836 856.502197,830.694275 856.184448,828.869202 
	C856.107727,828.535400 855.873108,828.326050 855.414490,827.868286 
	C854.476379,825.745850 853.762268,823.871826 853.440430,821.999451 
	C856.187988,822.990479 858.508972,824.683289 860.906616,824.799988 
	C864.281189,824.964355 867.714844,823.973389 871.119446,823.452026 
	C876.389648,822.644897 881.656677,821.817139 886.925049,820.998108 
	C891.619690,831.409546 896.314392,841.820984 900.752014,852.799561 
	C899.709595,853.893127 898.947083,854.837219 898.135376,854.881653 
	C889.777649,855.338989 881.413391,855.693115 873.047729,855.981995 
	C869.758423,856.095642 867.560364,857.102600 867.996399,860.919922 
	C851.641479,860.946472 835.286560,860.972961 818.475098,860.568237 
	C819.295105,858.580750 820.571777,857.024475 821.900024,855.405273 
	C821.655212,855.006897 821.494324,854.463684 821.131592,854.215698 
	C820.456787,853.754272 819.673096,853.445190 818.919556,853.106567 
	C810.614929,849.375183 802.651123,850.511658 795.320251,855.415894 
	C788.602844,859.909607 782.898010,856.738342 776.951416,853.921509 
	C775.257629,853.119324 773.409973,852.642090 771.632812,852.015808 
M830.268616,854.999939 
	C828.623962,854.779846 826.979309,854.559753 825.334656,854.339661 
	C825.375977,855.193115 825.417358,856.046570 825.458679,856.900085 
	C827.170166,856.491455 828.881653,856.082886 830.268616,854.999939 
z"/>
<path fill="#5655D5" opacity="1.000000" stroke="none" 
	d="
M792.989502,280.852020 
	C766.089539,289.538483 739.033203,297.773987 712.331055,307.030945 
	C682.118225,317.505035 652.990906,330.533295 625.741211,347.466858 
	C624.898132,347.990723 624.015747,348.460480 623.115173,348.876282 
	C622.894714,348.978027 622.529846,348.766846 621.714722,348.583160 
	C624.120850,340.261444 628.330383,333.084167 634.142822,326.818726 
	C645.149841,314.953796 659.279358,307.699432 673.625671,301.060760 
	C707.978516,285.164215 743.773865,273.131622 780.489868,262.792877 
	C782.645386,267.639954 784.259399,271.939606 789.190613,274.375793 
	C791.065735,275.302155 791.758118,278.622681 792.989502,280.852020 
z"/>
<path fill="#603FC0" opacity="1.000000" stroke="none" 
	d="
M342.003265,384.971497 
	C348.695740,386.289764 354.094299,389.666046 359.184784,394.263123 
	C373.185974,406.907135 379.409821,424.561798 389.158813,439.908325 
	C398.159454,454.076874 405.912933,469.037720 414.088531,484.362701 
	C413.300293,487.382904 412.160187,489.675842 412.091614,492.000397 
	C411.991272,495.402069 412.828369,498.819916 412.959595,502.242615 
	C413.152435,507.272583 409.584961,510.172729 404.556122,509.792999 
	C401.544891,509.565613 398.483521,510.001343 395.444702,510.139008 
	C382.257172,488.022583 369.069641,465.906189 356.187500,443.410797 
	C361.332123,441.701355 360.156128,438.425415 359.071045,435.142548 
	C357.322235,429.851593 355.605652,424.549896 353.883789,419.250031 
	C352.507751,415.014740 351.407623,410.663483 349.673523,406.580963 
	C348.676971,404.234741 347.094849,402.693451 348.695038,399.618774 
	C350.025665,397.062012 349.370483,393.699066 345.780579,392.198364 
	C342.574585,390.858185 341.458954,388.323486 342.003265,384.971497 
z"/>
<path fill="#4355CF" opacity="1.000000" stroke="none" 
	d="
M658.270996,162.825134 
	C659.742188,164.985641 660.886963,167.215820 662.002380,169.460587 
	C662.635193,170.734177 662.890137,172.445740 663.888245,173.240601 
	C666.862549,175.609329 667.312195,178.642105 666.992615,182.469147 
	C639.857239,197.784668 612.754211,212.784470 588.550537,232.259613 
	C577.309937,241.304199 566.867249,251.340439 555.781738,261.066864 
	C554.666748,259.864807 553.221863,258.565887 553.124084,257.172485 
	C552.910706,254.130676 551.745056,252.459778 548.864197,251.298508 
	C545.899658,250.103485 543.236816,248.160034 540.223389,246.277954 
	C548.335449,238.173416 556.273926,229.860992 565.069031,222.583817 
	C593.603027,198.974243 624.982300,179.691635 658.270996,162.825134 
z"/>
<path fill="#6747C9" opacity="1.000000" stroke="none" 
	d="
M673.106262,439.713257 
	C671.778870,436.427765 666.046204,430.937897 662.916016,428.255646 
	C658.862976,424.782562 655.660461,420.316895 651.931396,415.941711 
	C658.850769,399.296326 670.346252,388.212250 687.909119,383.385590 
	C702.463440,379.385742 716.746643,374.399536 731.591187,370.201111 
	C736.786072,379.768280 745.963318,382.340546 754.767639,384.771027 
	C759.133667,385.976288 761.862671,386.906616 761.001526,391.906616 
	C747.828857,396.285919 734.670532,400.709198 721.478821,405.030334 
	C711.243347,408.383087 700.951538,411.563873 690.723938,414.939819 
	C689.264099,415.421722 687.532288,416.260254 686.765198,417.466919 
	C682.158264,424.714569 677.796448,432.118042 673.106262,439.713257 
z"/>
<path fill="#5655D5" opacity="1.000000" stroke="none" 
	d="
M745.398682,343.020081 
	C745.862671,338.242188 743.756409,336.112610 739.124695,334.704071 
	C735.131714,333.489746 730.350037,332.260773 729.143677,326.594055 
	C746.783020,320.582336 764.283081,314.686584 781.985046,309.476440 
	C807.355713,302.009216 832.892700,295.108398 858.305176,287.779785 
	C861.532349,286.849091 863.508606,287.280701 865.549683,289.947418 
	C869.271362,294.809692 873.318665,299.422668 877.555786,304.532471 
	C833.175232,317.494263 789.482483,330.255188 745.398682,343.020081 
z"/>
<path fill="#563ABB" opacity="1.000000" stroke="none" 
	d="
M541.502747,577.252441 
	C538.729248,575.649902 535.917358,574.097351 533.789490,571.886536 
	C531.223145,569.220093 528.696472,566.243774 527.173279,562.932068 
	C525.982727,560.343628 526.477356,556.960144 522.361572,556.035828 
	C534.294067,532.441467 546.602722,508.891541 558.898438,485.334900 
	C562.031006,479.333435 565.122620,473.310699 568.940430,467.134186 
	C571.742493,467.948608 574.625610,468.365540 575.791870,470.004272 
	C580.206848,476.207977 584.065247,482.807800 588.131836,489.259460 
	C574.866821,514.398254 561.603943,539.538147 548.334656,564.674683 
	C546.159973,568.794312 543.957214,572.899109 541.502747,577.252441 
z"/>
<path fill="#563ABB" opacity="1.000000" stroke="none" 
	d="
M395.591034,510.476440 
	C398.483521,510.001343 401.544891,509.565613 404.556122,509.792999 
	C409.584961,510.172729 413.152435,507.272583 412.959595,502.242615 
	C412.828369,498.819916 411.991272,495.402069 412.091614,492.000397 
	C412.160187,489.675842 413.300293,487.382904 414.112549,484.701752 
	C421.598114,496.760254 429.005554,509.150421 436.247345,521.636658 
	C444.480591,535.832275 452.565735,550.113831 460.779724,564.698853 
	C455.081146,567.443359 454.805969,569.645386 456.175873,575.757263 
	C457.348358,580.988403 456.677704,586.639587 456.717316,592.105774 
	C456.721008,592.611267 456.024902,593.186584 455.552887,593.619507 
	C453.501862,595.500671 451.413513,597.341064 448.846222,599.288025 
	C434.746185,576.563232 421.127594,553.753296 407.538025,530.926086 
	C403.561981,524.247314 399.668640,517.519287 395.591034,510.476440 
z"/>
<path fill="#683DBF" opacity="1.000000" stroke="none" 
	d="
M341.695282,384.771851 
	C341.458954,388.323486 342.574585,390.858185 345.780579,392.198364 
	C349.370483,393.699066 350.025665,397.062012 348.695038,399.618774 
	C347.094849,402.693451 348.676971,404.234741 349.673523,406.580963 
	C351.407623,410.663483 352.507751,415.014740 353.883789,419.250031 
	C355.605652,424.549896 357.322235,429.851593 359.071045,435.142548 
	C360.156128,438.425415 361.332123,441.701355 356.086945,443.064636 
	C350.771912,435.076477 345.992767,426.970734 340.857819,419.097015 
	C339.648346,417.242523 337.450623,415.527863 335.349762,414.837463 
	C314.616211,408.023560 293.807220,401.439301 273.064514,394.342224 
	C272.915680,391.268829 273.265442,388.452667 272.424774,386.053711 
	C270.047180,379.268829 272.191345,369.356171 277.506958,364.750275 
	C298.800415,371.357574 320.093842,377.964874 341.695282,384.771851 
z"/>
<path fill="#444EC8" opacity="1.000000" stroke="none" 
	d="
M476.944763,801.983887 
	C484.300995,784.989075 491.712830,768.017883 498.949341,750.972229 
	C499.956665,748.599548 501.171143,747.776367 503.703583,747.805420 
	C514.006958,747.923767 524.314636,747.942444 534.616211,747.751221 
	C537.436462,747.698975 538.684631,748.755066 539.749084,751.224060 
	C545.071594,763.570068 550.577576,775.836914 555.843628,788.777893 
	C554.762390,789.393921 553.406738,789.737854 553.021545,789.274658 
	C549.692566,785.271606 546.506226,787.076172 542.547974,788.514465 
	C536.646118,790.658875 530.294739,791.566040 524.021362,792.651367 
	C522.443359,788.948303 520.978455,785.593628 519.210876,781.545715 
	C515.973450,788.921509 513.176758,795.293030 510.284546,801.225525 
	C509.227173,794.619690 507.897736,794.353088 501.979584,795.844910 
	C493.654053,797.943726 486.171143,803.621704 476.944763,801.983887 
z"/>
<path fill="#4048C2" opacity="1.000000" stroke="none" 
	d="
M233.397003,217.130951 
	C232.602798,213.757828 232.016785,210.194168 234.438736,206.906937 
	C234.933914,206.234848 235.005539,204.274796 234.724564,204.150925 
	C229.145599,201.691086 227.384354,192.632996 218.628174,195.003540 
	C228.534256,176.470383 238.845779,157.928024 249.195221,139.406845 
	C252.835968,132.891403 256.481812,126.374680 260.347351,119.993027 
	C260.990997,118.930412 263.093231,117.680107 263.984985,118.002136 
	C274.700287,121.871735 285.314423,126.021523 296.035522,130.435593 
	C294.582214,134.058731 294.484253,138.871231 288.576202,137.466690 
	C288.052826,137.342255 286.969391,139.573700 286.146057,140.710953 
	C287.247894,141.246979 288.326050,141.841461 289.458801,142.301315 
	C290.440125,142.699677 292.040039,142.640152 292.406982,143.309219 
	C294.431885,147.001602 296.162567,150.855331 297.985321,155.067139 
	C289.888153,152.572113 281.799835,149.663681 273.412262,146.647644 
	C260.100159,170.181778 246.885254,193.544067 233.397003,217.130951 
z"/>
<path fill="#8035AF" opacity="1.000000" stroke="none" 
	d="
M672.000000,863.001953 
	C679.497803,862.330688 687.059570,862.052368 694.469849,860.844299 
	C699.080933,860.092590 702.963562,857.313904 705.409668,852.356934 
	C708.581177,852.350525 711.297363,853.071533 713.889587,852.760315 
	C719.090576,852.135803 724.236328,851.009705 729.381165,849.972473 
	C733.546265,849.132874 738.369263,849.713074 740.870728,844.996643 
	C741.846863,862.045898 733.530823,873.708740 719.417664,882.014404 
	C710.490906,887.267883 700.678406,889.541626 690.504456,890.515808 
	C674.279114,892.069214 658.342285,890.500488 642.351868,885.336426 
	C640.074463,875.189941 640.021545,875.057251 649.549072,871.259155 
	C656.953308,868.307556 664.510681,865.740112 672.000000,863.001953 
z"/>
<path fill="#5737B8" opacity="1.000000" stroke="none" 
	d="
M247.996719,332.900299 
	C225.286606,326.410950 202.577454,319.918182 179.865906,313.433899 
	C169.826263,310.567474 159.781662,307.718353 148.862808,304.612030 
	C153.965622,298.582001 158.467377,293.080963 163.239731,287.825684 
	C163.925034,287.071014 166.031784,287.089630 167.284622,287.443848 
	C195.951859,295.549500 224.593323,303.746338 253.234573,311.943787 
	C256.017151,312.740234 258.766785,313.651642 261.592468,315.003418 
	C254.482819,319.243622 250.312836,325.344604 247.996719,332.900299 
z"/>
<path fill="#4543C3" opacity="1.000000" stroke="none" 
	d="
M370.382996,794.069946 
	C372.964874,798.065369 375.546783,802.060730 378.419495,806.506165 
	C382.686310,799.920105 386.700439,793.724182 391.352356,787.255127 
	C393.935181,786.654785 395.889191,786.373047 397.823578,785.991516 
	C402.604553,785.048401 407.486023,784.417969 412.124908,783.000244 
	C418.164825,781.154297 423.854401,777.217773 430.437439,781.136902 
	C421.520203,795.370056 412.602966,809.603210 403.253662,823.694214 
	C401.405151,819.804443 399.212097,819.395752 395.921204,821.568726 
	C394.054810,822.801025 391.811493,823.922546 389.640900,824.144226 
	C384.076019,824.712646 378.456421,824.958374 372.859650,824.944641 
	C366.564667,824.929138 361.241516,826.937927 356.802002,831.362976 
	C351.488739,823.171082 346.175476,814.979187 341.179810,806.411133 
	C349.681458,803.642883 357.928741,801.438110 366.000305,798.712891 
	C367.780762,798.111694 368.938507,795.666199 370.382996,794.069946 
z"/>
<path fill="#5B5BDA" opacity="1.000000" stroke="none" 
	d="
M837.861694,337.511536 
	C858.001953,331.672394 878.344482,326.433533 898.197510,319.742157 
	C908.200500,316.370728 915.352234,317.416626 922.059143,325.631653 
	C925.691101,330.080383 930.608887,333.479462 935.845337,338.154358 
	C915.686035,344.256317 896.416870,350.088837 876.653687,355.485291 
	C874.384460,353.699921 872.702881,352.190735 870.792847,351.071381 
	C869.892517,350.543732 868.477417,350.981506 867.425537,350.611908 
	C858.186768,347.365295 848.953674,344.097839 839.796082,340.632294 
	C838.887695,340.288544 838.494141,338.584351 837.861694,337.511536 
z"/>
<path fill="#5943C4" opacity="1.000000" stroke="none" 
	d="
M588.406006,489.046814 
	C584.065247,482.807800 580.206848,476.207977 575.791870,470.004272 
	C574.625610,468.365540 571.742493,467.948608 569.233032,466.949677 
	C578.609436,448.230347 588.400574,429.532013 598.471497,410.600647 
	C599.861511,412.418457 601.212830,414.379395 602.020203,416.543304 
	C602.996155,419.159027 604.439087,419.191895 606.616882,418.208618 
	C608.538452,417.341125 610.529907,416.324829 612.573120,416.088745 
	C618.131592,415.446442 620.962524,417.930389 622.963257,424.862610 
	C611.645508,446.428223 600.162842,467.631195 588.406006,489.046814 
z"/>
<path fill="#5B4CCD" opacity="1.000000" stroke="none" 
	d="
M761.388916,391.974670 
	C761.862671,386.906616 759.133667,385.976288 754.767639,384.771027 
	C745.963318,382.340546 736.786072,379.768280 731.988770,370.183960 
	C749.322266,364.401917 766.699341,358.987762 784.531372,353.922302 
	C786.664612,358.178558 790.030701,357.971466 793.251770,357.323273 
	C795.866089,356.797150 797.746521,356.944427 798.914429,359.667664 
	C799.273071,360.503998 800.049744,361.413330 800.861755,361.763855 
	C808.874207,365.222107 816.934448,368.569702 824.981140,371.948669 
	C803.912842,378.646698 782.844604,385.344727 761.388916,391.974670 
z"/>
<path fill="#7540BC" opacity="1.000000" stroke="none" 
	d="
M277.223083,364.496460 
	C272.191345,369.356171 270.047180,379.268829 272.424774,386.053711 
	C273.265442,388.452667 272.915680,391.268829 272.742493,394.135315 
	C257.061005,389.570526 241.746490,384.764893 226.189178,379.390442 
	C225.572128,376.719696 225.923828,373.776398 224.669647,372.694244 
	C222.202484,370.565430 218.805664,369.538239 215.873276,367.911377 
	C214.832016,367.333679 213.215607,366.312866 213.239594,365.536926 
	C213.386307,360.788879 214.013672,356.058228 214.299866,351.310852 
	C214.422424,349.277924 214.109344,347.218750 213.994202,345.171478 
	C234.975861,351.528534 255.957535,357.885590 277.223083,364.496460 
z"/>
<path fill="#6539B8" opacity="1.000000" stroke="none" 
	d="
M793.658264,800.908203 
	C797.201904,792.761353 800.745483,784.614441 805.019653,776.235962 
	C816.495056,775.325195 827.240601,774.656006 837.983398,773.946716 
	C838.788879,773.893494 839.589111,773.596069 840.368652,773.341492 
	C847.833679,770.902588 855.293823,768.448486 862.755371,765.998779 
	C866.862122,775.416626 870.968872,784.834473 874.737305,794.621948 
	C870.797363,793.313599 867.966003,792.927917 864.576050,796.493774 
	C862.182983,799.011047 857.832764,800.044861 854.160889,800.854370 
	C850.999817,801.551270 847.562195,800.994141 844.025879,800.689270 
	C841.158569,794.161499 838.512268,787.935974 835.711487,781.346924 
	C832.633606,787.378845 829.907837,792.720642 826.820496,798.000793 
	C823.743469,795.368408 821.495300,795.748901 818.877563,798.441895 
	C817.260315,800.105591 814.847656,801.225586 812.589233,801.992737 
	C806.190979,804.166077 799.870789,803.025513 793.658264,800.908203 
z"/>
<path fill="#9037A9" opacity="1.000000" stroke="none" 
	d="
M567.507080,618.465271 
	C557.897705,634.998108 548.314697,651.546448 538.609192,668.022644 
	C538.066162,668.944519 536.521057,669.779419 535.429504,669.795837 
	C526.152771,669.935486 516.872986,669.875732 506.574158,669.875732 
	C518.494141,649.009583 529.832764,629.161255 541.802490,609.157837 
	C543.447510,609.985779 544.349976,611.132080 545.499390,611.916565 
	C547.654297,613.387512 549.798645,615.263916 552.222656,615.869507 
	C557.221619,617.118408 562.401611,617.642761 567.507080,618.465271 
z"/>
<path fill="#8035AF" opacity="1.000000" stroke="none" 
	d="
M567.494263,618.444702 
	C562.401611,617.642761 557.221619,617.118408 552.222656,615.869507 
	C549.798645,615.263916 547.654297,613.387512 545.499390,611.916565 
	C544.349976,611.132080 543.447510,609.985779 542.056702,608.947021 
	C548.701172,596.268066 555.707642,583.636536 562.750610,571.025574 
	C565.900818,565.384949 569.124451,559.785339 572.601074,553.959778 
	C574.311829,555.616272 576.038147,557.322815 577.105713,559.372559 
	C580.691589,566.257263 586.712219,568.076172 593.578064,564.282776 
	C595.407471,563.271973 597.523315,562.779480 599.909058,562.073853 
	C593.059326,574.843567 585.846619,587.610657 578.538574,600.322937 
	C575.567993,605.490112 572.390381,610.538391 568.761780,615.979614 
	C567.979309,617.006531 567.742065,617.694763 567.504822,618.382935 
	C567.504822,618.382935 567.481506,618.424072 567.494263,618.444702 
z"/>
<path fill="#5655D5" opacity="1.000000" stroke="none" 
	d="
M825.365967,371.933594 
	C816.934448,368.569702 808.874207,365.222107 800.861755,361.763855 
	C800.049744,361.413330 799.273071,360.503998 798.914429,359.667664 
	C797.746521,356.944427 795.866089,356.797150 793.251770,357.323273 
	C790.030701,357.971466 786.664612,358.178558 784.934570,353.854675 
	C802.277710,348.177429 819.672485,342.916443 837.464478,337.583527 
	C838.494141,338.584351 838.887695,340.288544 839.796082,340.632294 
	C848.953674,344.097839 858.186768,347.365295 867.425537,350.611908 
	C868.477417,350.981506 869.892517,350.543732 870.792847,351.071381 
	C872.702881,352.190735 874.384460,353.699921 876.234375,355.497192 
	C859.456299,361.269592 842.603577,366.594025 825.365967,371.933594 
z"/>
<path fill="#4D44C4" opacity="1.000000" stroke="none" 
	d="
M323.968933,310.418518 
	C326.188324,306.569946 325.163177,304.647827 321.257690,302.725464 
	C318.065582,301.154236 315.590057,298.127197 312.784546,295.735107 
	C314.943604,291.779755 317.563782,292.993500 319.940674,293.887604 
	C323.509674,295.230133 325.698944,294.501617 326.104919,289.994568 
	C346.993561,297.637299 367.569489,306.289368 385.429871,320.054047 
	C394.943634,327.386108 401.719177,336.860321 405.541046,349.885040 
	C378.933014,333.792786 352.180817,320.957031 323.968933,310.418518 
z"/>
<path fill="#7536B3" opacity="1.000000" stroke="none" 
	d="
M213.654816,345.005798 
	C214.109344,347.218750 214.422424,349.277924 214.299866,351.310852 
	C214.013672,356.058228 213.386307,360.788879 213.239594,365.536926 
	C213.215607,366.312866 214.832016,367.333679 215.873276,367.911377 
	C218.805664,369.538239 222.202484,370.565430 224.669647,372.694244 
	C225.923828,373.776398 225.572128,376.719696 225.889221,379.215912 
	C224.729843,379.327942 223.627609,379.045715 222.046326,378.448853 
	C221.385086,378.046722 221.192932,378.003387 220.990784,378.004211 
	C215.611374,376.530487 210.182770,375.214020 204.862915,373.549957 
	C194.102371,370.183990 183.400772,366.629608 172.338974,362.588684 
	C170.542114,359.282928 169.139053,356.508240 167.596222,353.813568 
	C166.803146,352.428345 165.228119,351.298737 164.922989,349.859344 
	C163.579865,343.523163 162.770996,337.128540 165.996338,331.016266 
	C181.769363,335.624207 197.542374,340.232147 213.654816,345.005798 
z"/>
<path fill="#4B64DC" opacity="1.000000" stroke="none" 
	d="
M793.378540,280.862640 
	C791.758118,278.622681 791.065735,275.302155 789.190613,274.375793 
	C784.259399,271.939606 782.645386,267.639954 780.894348,262.734741 
	C791.413208,259.113800 801.981018,255.905807 812.939636,252.579178 
	C810.237427,247.589951 807.589417,242.700684 804.834839,237.468506 
	C809.979858,235.372330 814.821106,235.090500 819.650818,238.918259 
	C823.482422,241.955017 827.999878,244.169876 832.373901,246.439392 
	C833.180603,246.857986 834.756409,245.794388 836.052368,245.038635 
	C840.274231,251.558960 844.421082,258.455566 848.846924,265.816254 
	C829.921631,270.989838 811.844604,275.931549 793.378540,280.862640 
z"/>
<path fill="#4543C3" opacity="1.000000" stroke="none" 
	d="
M188.106201,878.020752 
	C185.991486,873.292114 183.876801,868.563538 182.094299,863.442749 
	C187.567932,863.462585 190.211044,859.426941 193.729935,856.841187 
	C199.082993,852.907715 203.011490,846.181458 211.217789,847.477722 
	C211.365707,847.501038 211.691360,846.399231 211.934052,845.822388 
	C211.934036,845.822388 211.935699,845.381531 212.380951,845.130005 
	C214.510529,842.491760 218.287628,840.906921 215.865234,836.946777 
	C216.124741,836.136475 216.384262,835.326233 217.214325,834.257324 
	C218.731812,833.783691 219.904419,833.853882 220.591583,833.310364 
	C229.773422,826.047241 238.900162,818.714050 248.009674,811.359924 
	C250.454895,809.385925 253.212601,807.603577 255.088409,805.165100 
	C257.947754,801.448120 261.099335,800.278381 265.380676,802.104614 
	C262.507965,808.706848 259.622131,815.303406 256.772827,821.915771 
	C256.144379,823.374268 255.645309,824.888428 254.454269,826.689758 
	C251.207199,827.806519 247.995224,827.913391 246.090256,829.545715 
	C240.445679,834.382202 235.140091,839.654663 230.044785,845.078674 
	C226.320068,849.043762 223.485107,853.869202 219.632767,857.684387 
	C213.520828,863.737244 207.140366,869.586426 200.369278,874.876465 
	C197.191559,877.359131 192.838745,878.337769 189.018463,879.998047 
	C189.018463,879.998047 188.807693,879.822205 188.812225,879.390625 
	C188.579895,878.646240 188.343048,878.333496 188.106201,878.020752 
z"/>
<path fill="#4D39BA" opacity="1.000000" stroke="none" 
	d="
M189.051392,880.366272 
	C192.838745,878.337769 197.191559,877.359131 200.369278,874.876465 
	C207.140366,869.586426 213.520828,863.737244 219.632767,857.684387 
	C223.485107,853.869202 226.320068,849.043762 230.044785,845.078674 
	C235.140091,839.654663 240.445679,834.382202 246.090256,829.545715 
	C247.995224,827.913391 251.207199,827.806519 254.211319,827.001221 
	C248.554062,841.397705 242.506012,855.794983 236.461380,870.193604 
	C234.208710,875.559509 232.142944,881.015991 229.593979,886.236938 
	C228.931580,887.593689 226.790833,889.014404 225.295654,889.051331 
	C215.479980,889.293640 205.651917,889.286865 195.836761,889.026672 
	C194.350983,888.987305 192.561539,887.476562 191.542084,886.159241 
	C190.360046,884.631714 189.873047,882.566406 189.051392,880.366272 
z"/>
<path fill="#4D39BA" opacity="1.000000" stroke="none" 
	d="
M464.853699,538.442688 
	C468.315430,535.820374 472.222626,533.952637 475.281342,531.156677 
	C477.796967,528.857178 479.508728,525.567017 481.184143,522.501404 
	C482.183105,520.673584 482.424469,518.431641 483.061279,515.957703 
	C490.911652,530.433960 498.734009,545.314514 506.444550,560.252869 
	C506.979706,561.289612 507.172699,562.988953 506.697357,563.985413 
	C502.506165,572.771118 498.127319,581.467346 493.269592,591.268188 
	C483.467285,573.117310 474.199677,555.956482 464.853699,538.442688 
z"/>
<path fill="#4355CF" opacity="1.000000" stroke="none" 
	d="
M232.845184,796.874756 
	C239.322601,781.404236 245.754074,765.914062 252.369537,750.502808 
	C252.869202,749.338806 254.665329,748.009521 255.881134,747.987549 
	C266.679504,747.791809 277.482971,747.873657 289.201508,747.873657 
	C284.311279,759.146118 279.664825,769.856689 274.392487,780.826660 
	C271.684784,780.843506 269.173981,779.729736 267.594879,780.507629 
	C260.434692,784.034424 253.658081,788.339417 246.500519,791.872192 
	C242.178558,794.005371 237.411972,795.237671 232.845184,796.874756 
z"/>
<path fill="#603FC0" opacity="1.000000" stroke="none" 
	d="
M248.315430,333.096130 
	C250.312836,325.344604 254.482819,319.243622 261.842987,315.217621 
	C276.566254,319.464508 291.107880,323.964905 305.627136,328.536469 
	C309.038330,329.610504 312.373901,330.924805 315.905334,332.457764 
	C311.232513,340.941528 311.509796,342.680634 318.416046,349.980133 
	C319.523529,351.150696 322.387054,352.284119 319.184753,354.723633 
	C303.488342,350.195312 287.970337,345.403809 272.450592,340.618073 
	C264.513458,338.170593 256.573059,335.733612 248.315430,333.096130 
z"/>
<path fill="#6539B8" opacity="1.000000" stroke="none" 
	d="
M695.997131,837.842590 
	C685.153748,834.942322 674.295532,832.095764 663.473450,829.118103 
	C658.446228,827.734924 653.489136,826.096680 648.401489,823.995728 
	C649.559387,822.651917 650.732666,821.451721 652.086121,821.192566 
	C660.014771,819.674316 668.227478,819.154968 675.872681,816.780090 
	C683.211243,814.500366 689.976379,810.374268 696.993530,807.059448 
	C711.361694,808.976013 724.303345,813.786926 733.765320,825.726135 
	C723.673584,830.642151 713.357483,833.253723 702.426697,832.985046 
	C698.928406,832.899048 696.023010,833.417542 695.997131,837.842590 
z"/>
<path fill="#4B7FE3" opacity="1.000000" stroke="none" 
	d="
M152.148392,795.009949 
	C145.319641,779.571533 138.490860,764.133118 131.301453,747.879395 
	C143.593033,747.879395 154.861542,747.844666 166.128906,747.941345 
	C167.093811,747.949646 168.606796,748.594055 168.926819,749.343628 
	C172.435333,757.561340 175.757248,765.858765 178.777008,774.553467 
	C177.262421,775.506409 175.881729,775.797485 174.975220,776.614563 
	C169.948456,781.145569 165.169785,785.960022 160.025513,790.348511 
	C157.738678,792.299500 154.794296,793.479797 152.148392,795.009949 
z"/>
<path fill="#9037A9" opacity="1.000000" stroke="none" 
	d="
M771.419312,852.265015 
	C773.409973,852.642090 775.257629,853.119324 776.951416,853.921509 
	C782.898010,856.738342 788.602844,859.909607 795.320251,855.415894 
	C802.651123,850.511658 810.614929,849.375183 818.919556,853.106567 
	C819.673096,853.445190 820.456787,853.754272 821.131592,854.215698 
	C821.494324,854.463684 821.655212,855.006897 821.900024,855.405273 
	C820.571777,857.024475 819.295105,858.580750 818.011230,860.498657 
	C817.675049,860.907593 817.347473,860.983093 817.017090,860.997742 
	C812.098083,861.217346 806.087708,859.784363 802.573547,862.115723 
	C799.215576,864.343445 798.452881,870.485657 796.555054,874.909729 
	C796.031189,876.130920 795.519104,877.357361 795.015564,878.587036 
	C790.667908,889.205200 790.668945,889.197510 778.924255,889.173706 
	C771.320496,889.158264 763.716675,889.170776 755.072632,889.170776 
	C760.685852,876.416687 765.945801,864.465393 771.419312,852.265015 
z"/>
<path fill="#4D44C4" opacity="1.000000" stroke="none" 
	d="
M476.704865,802.232788 
	C486.171143,803.621704 493.654053,797.943726 501.979584,795.844910 
	C507.897736,794.353088 509.227173,794.619690 510.222961,801.563293 
	C506.013672,812.757996 501.770477,823.175842 497.148804,834.522949 
	C511.770844,834.522949 525.387329,834.522949 539.003784,834.522949 
	C537.402283,835.012085 535.807434,835.897095 534.198181,835.924072 
	C525.723633,836.066284 517.215393,836.448425 508.774994,835.893250 
	C493.386993,834.880981 478.066895,834.591614 462.336334,836.968628 
	C466.748444,825.465088 471.606689,813.973328 476.704865,802.232788 
z"/>
<path fill="#563ABB" opacity="1.000000" stroke="none" 
	d="
M696.639587,806.903198 
	C689.976379,810.374268 683.211243,814.500366 675.872681,816.780090 
	C668.227478,819.154968 660.014771,819.674316 652.086121,821.192566 
	C650.732666,821.451721 649.559387,822.651917 648.135986,823.743469 
	C647.473999,823.989502 646.978760,823.909424 646.065552,823.511230 
	C645.479736,823.080627 645.296204,823.007629 645.096924,822.974243 
	C633.610535,818.360596 624.751648,811.152527 621.170593,798.371338 
	C630.948303,800.905334 639.314697,794.861816 648.451477,793.725098 
	C651.047607,793.402100 653.661560,793.222717 656.726746,792.959717 
	C662.116394,795.325195 666.869507,798.233704 672.017883,799.970093 
	C679.965027,802.650391 688.182739,804.528564 696.639587,806.903198 
z"/>
<path fill="#444EC8" opacity="1.000000" stroke="none" 
	d="
M430.688660,780.936523 
	C423.854401,777.217773 418.164825,781.154297 412.124908,783.000244 
	C407.486023,784.417969 402.604553,785.048401 397.823578,785.991516 
	C395.889191,786.373047 393.935181,786.654785 391.579651,786.996460 
	C399.055817,774.543091 406.920105,762.061035 414.880127,749.640259 
	C415.402740,748.824890 416.652466,747.996704 417.572144,747.987427 
	C428.787659,747.874573 440.004730,747.914124 451.799530,747.914124 
	C444.590607,759.257202 437.765228,769.996704 430.688660,780.936523 
z"/>
<path fill="#4D31B4" opacity="1.000000" stroke="none" 
	d="
M394.865387,850.008057 
	C394.865387,862.892822 394.865387,875.777588 394.865387,888.907349 
	C383.282593,888.907349 372.061646,888.907349 360.222839,888.907349 
	C360.222839,877.776001 360.222839,866.732605 360.776489,855.322876 
	C369.158081,856.323181 376.387787,854.185852 383.256866,850.801636 
	C387.151764,848.882690 390.813080,847.689758 394.865387,850.008057 
z"/>
<path fill="#9037A9" opacity="1.000000" stroke="none" 
	d="
M868.274292,861.145752 
	C867.560364,857.102600 869.758423,856.095642 873.047729,855.981995 
	C881.413391,855.693115 889.777649,855.338989 898.135376,854.881653 
	C898.947083,854.837219 899.709595,853.893127 900.791870,853.162048 
	C906.341248,864.773987 911.593689,876.590515 917.158752,889.110291 
	C904.935547,889.110291 893.383972,889.195740 881.838745,888.963867 
	C880.807861,888.943176 879.446167,887.027283 878.870117,885.714294 
	C875.329712,877.644409 871.971191,869.494751 868.274292,861.145752 
z"/>
<path fill="#563ABB" opacity="1.000000" stroke="none" 
	d="
M862.700684,765.653564 
	C855.293823,768.448486 847.833679,770.902588 840.368652,773.341492 
	C839.589111,773.596069 838.788879,773.893494 837.983398,773.946716 
	C827.240601,774.656006 816.495056,775.325195 805.273071,776.008301 
	C808.472534,767.297302 812.078369,758.550842 815.923401,749.910828 
	C816.360962,748.927673 818.132507,747.985596 819.300903,747.966492 
	C830.284302,747.786499 841.272705,747.711975 852.254333,747.908142 
	C853.569946,747.931580 855.390503,749.473511 856.055664,750.780518 
	C858.464905,755.515015 860.481323,760.449402 862.700684,765.653564 
z"/>
<path fill="#444EC8" opacity="1.000000" stroke="none" 
	d="
M370.294067,793.774902 
	C368.938507,795.666199 367.780762,798.111694 366.000305,798.712891 
	C357.928741,801.438110 349.681458,803.642883 341.072632,806.069458 
	C333.746094,795.322083 326.844330,784.540222 320.259491,773.389282 
	C322.433319,772.376343 324.375305,771.907532 326.130341,771.054138 
	C330.487030,768.935669 334.761597,769.047913 339.531982,769.862366 
	C344.577148,770.723694 349.893524,769.996338 355.091431,769.963013 
	C360.129333,777.801941 365.167236,785.640869 370.294067,793.774902 
z"/>
<path fill="#4D44C4" opacity="1.000000" stroke="none" 
	d="
M524.134583,792.999634 
	C530.294739,791.566040 536.646118,790.658875 542.547974,788.514465 
	C546.506226,787.076172 549.692566,785.271606 553.021545,789.274658 
	C553.406738,789.737854 554.762390,789.393921 555.871582,789.142334 
	C560.371887,798.327271 564.668884,807.794128 568.979248,817.632385 
	C566.396301,818.772766 563.783630,819.491089 561.208191,820.324768 
	C558.639282,821.156372 556.169800,822.429749 553.546326,822.929138 
	C548.737427,823.844482 543.847351,824.333008 538.444885,824.851013 
	C537.898682,824.702515 537.882446,824.328125 537.911255,824.021851 
	C537.608459,823.177979 537.276794,822.640320 536.690125,821.854187 
	C532.334900,812.070312 528.234741,802.534973 524.134583,792.999634 
z"/>
<path fill="#8035AF" opacity="1.000000" stroke="none" 
	d="
M165.696823,330.807556 
	C162.770996,337.128540 163.579865,343.523163 164.922989,349.859344 
	C165.228119,351.298737 166.803146,352.428345 167.596222,353.813568 
	C169.139053,356.508240 170.542114,359.282928 172.003845,362.414490 
	C159.246857,358.899078 146.489059,354.993683 133.312836,350.608734 
	C129.702606,340.568237 128.216141,330.954865 132.003662,321.179230 
	C143.134872,324.319092 154.266098,327.458984 165.696823,330.807556 
z"/>
<path fill="#4D39BA" opacity="1.000000" stroke="none" 
	d="
M394.944916,849.548584 
	C390.813080,847.689758 387.151764,848.882690 383.256866,850.801636 
	C376.387787,854.185852 369.158081,856.323181 360.869537,854.918335 
	C360.302795,850.765808 360.561157,846.599365 359.981232,842.553040 
	C359.469238,838.980835 358.022186,835.542786 356.895020,831.704224 
	C361.241516,826.937927 366.564667,824.929138 372.859650,824.944641 
	C378.456421,824.958374 384.076019,824.712646 389.640900,824.144226 
	C391.811493,823.922546 394.054810,822.801025 395.921204,821.568726 
	C399.212097,819.395752 401.405151,819.804443 402.969849,823.887207 
	C402.752777,824.957336 402.549255,825.855530 401.997406,826.402161 
	C395.608734,832.730835 394.161560,840.548462 394.944916,849.548584 
z"/>
<path fill="#4948C9" opacity="1.000000" stroke="none" 
	d="
M232.863525,796.879517 
	C237.411972,795.237671 242.178558,794.005371 246.500519,791.872192 
	C253.658081,788.339417 260.434692,784.034424 267.594879,780.507629 
	C269.173981,779.729736 271.684784,780.843506 274.203461,781.136719 
	C271.709900,788.002258 268.779449,794.817261 265.614838,801.868408 
	C261.099335,800.278381 257.947754,801.448120 255.088409,805.165100 
	C253.212601,807.603577 250.454895,809.385925 248.009674,811.359924 
	C238.900162,818.714050 229.773422,826.047241 220.591583,833.310364 
	C219.904419,833.853882 218.731812,833.783691 217.409302,833.999878 
	C221.577454,823.197815 226.121170,812.394653 231.201324,801.261108 
	C232.111618,799.581909 232.485458,798.233032 232.859283,796.884155 
	C232.859283,796.884155 232.881851,796.884216 232.863525,796.879517 
z"/>
<path fill="#7536B3" opacity="1.000000" stroke="none" 
	d="
M671.625854,862.866272 
	C664.510681,865.740112 656.953308,868.307556 649.549072,871.259155 
	C640.021545,875.057251 640.074463,875.189941 642.001282,885.144043 
	C633.650391,882.104065 625.295654,878.701416 616.600708,875.160156 
	C620.910278,865.217285 624.659180,856.567993 628.605957,847.462097 
	C641.895020,855.869141 655.771362,861.624207 671.625854,862.866272 
z"/>
<path fill="#4355CF" opacity="1.000000" stroke="none" 
	d="
M355.010864,769.620972 
	C349.893524,769.996338 344.577148,770.723694 339.531982,769.862366 
	C334.761597,769.047913 330.487030,768.935669 326.130341,771.054138 
	C324.375305,771.907532 322.433319,772.376343 320.176727,773.043091 
	C314.376953,765.007141 308.976837,756.948303 302.871735,747.837341 
	C316.021820,747.837341 327.888123,747.748169 339.748291,747.977295 
	C340.913269,747.999817 342.295532,749.805481 343.141815,751.073792 
	C347.154053,757.086975 351.015259,763.200928 355.010864,769.620972 
z"/>
<path fill="#7536B3" opacity="1.000000" stroke="none" 
	d="
M844.246887,800.991516 
	C847.562195,800.994141 850.999817,801.551270 854.160889,800.854370 
	C857.832764,800.044861 862.182983,799.011047 864.576050,796.493774 
	C867.966003,792.927917 870.797363,793.313599 874.786987,794.993774 
	C879.066711,803.423767 882.958557,811.851624 886.887695,820.638794 
	C881.656677,821.817139 876.389648,822.644897 871.119446,823.452026 
	C867.714844,823.973389 864.281189,824.964355 860.906616,824.799988 
	C858.508972,824.683289 856.187988,822.990479 853.217712,821.716309 
	C849.817383,814.618286 847.032104,807.804871 844.246887,800.991516 
z"/>
<path fill="#9037A9" opacity="1.000000" stroke="none" 
	d="
M131.661484,321.008850 
	C128.216141,330.954865 129.702606,340.568237 132.948334,350.505981 
	C119.164810,346.740753 105.327362,342.598633 90.573631,338.182251 
	C98.763535,330.835724 106.183334,324.070404 113.783157,317.513733 
	C114.647331,316.768158 116.609909,316.830170 117.912865,317.143219 
	C122.417572,318.225555 126.855782,319.584717 131.661484,321.008850 
z"/>
<path fill="#7536B3" opacity="1.000000" stroke="none" 
	d="
M696.269592,838.059204 
	C696.023010,833.417542 698.928406,832.899048 702.426697,832.985046 
	C713.357483,833.253723 723.673584,830.642151 733.929077,826.028809 
	C738.789734,831.142456 740.602661,837.394897 740.938110,844.581299 
	C738.369263,849.713074 733.546265,849.132874 729.381165,849.972473 
	C724.236328,851.009705 719.090576,852.135803 713.889587,852.760315 
	C711.297363,853.071533 708.581177,852.350525 705.573853,852.047668 
	C706.331482,844.893311 702.083374,841.175354 696.269592,838.059204 
z"/>
<path fill="#456ADE" opacity="1.000000" stroke="none" 
	d="
M152.175308,795.368286 
	C154.794296,793.479797 157.738678,792.299500 160.025513,790.348511 
	C165.169785,785.960022 169.948456,781.145569 174.975220,776.614563 
	C175.881729,775.797485 177.262421,775.506409 178.801483,774.946472 
	C182.158508,781.659363 185.138199,788.398315 187.764023,795.551147 
	C185.897079,796.471985 183.995224,796.567810 182.943619,797.562561 
	C179.759521,800.574402 177.029938,804.062866 173.889709,807.126099 
	C170.128357,810.795288 167.834564,816.343018 161.648102,817.025085 
	C158.499481,809.925598 155.350861,802.826111 152.175308,795.368286 
z"/>
<path fill="#7536B3" opacity="1.000000" stroke="none" 
	d="
M793.430542,801.156372 
	C799.870789,803.025513 806.190979,804.166077 812.589233,801.992737 
	C814.847656,801.225586 817.260315,800.105591 818.877563,798.441895 
	C821.495300,795.748901 823.743469,795.368408 826.784180,798.391785 
	C823.917542,806.879639 820.725525,814.914917 817.533569,822.950195 
	C816.653870,819.526917 815.525085,818.523926 811.616577,820.425720 
	C802.921570,824.656311 793.569092,826.856873 783.249878,826.008057 
	C786.244995,817.808289 789.723877,809.606384 793.430542,801.156372 
z"/>
<path fill="#6539B8" opacity="1.000000" stroke="none" 
	d="
M549.378723,860.964966 
	C549.270203,858.303101 548.552002,856.700317 545.500305,856.966736 
	C543.564636,857.135742 541.602112,856.998352 539.651672,856.998352 
	C539.529358,856.375977 539.407043,855.753662 539.284729,855.131287 
	C541.016113,854.755127 542.747803,854.053650 544.478760,854.055420 
	C555.910461,854.067322 567.403320,854.738037 578.269958,850.051697 
	C579.471802,849.533447 580.617249,848.884460 581.991455,847.968811 
	C584.822327,853.432312 587.450562,859.223083 589.920654,865.680420 
	C580.448303,872.498779 569.834167,874.909668 559.108215,876.998779 
	C557.293030,872.597229 555.648193,868.112183 553.557312,863.845764 
	C552.942627,862.591492 551.064026,861.956543 549.378723,860.964966 
z"/>
<path fill="#4B64DC" opacity="1.000000" stroke="none" 
	d="
M161.708649,817.405640 
	C167.834564,816.343018 170.128357,810.795288 173.889709,807.126099 
	C177.029938,804.062866 179.759521,800.574402 182.943619,797.562561 
	C183.995224,796.567810 185.897079,796.471985 187.810608,795.941040 
	C190.316223,800.059937 192.464325,804.181946 194.507309,808.355408 
	C195.443054,810.267029 196.172165,812.279785 196.702393,814.758057 
	C188.696518,821.216675 180.151917,826.232727 175.124649,835.133423 
	C174.353897,836.497986 172.251526,837.110535 170.765045,838.070923 
	C167.766449,831.309387 164.767838,824.547791 161.708649,817.405640 
z"/>
<path fill="#4355CF" opacity="1.000000" stroke="none" 
	d="
M170.831573,838.438904 
	C172.251526,837.110535 174.353897,836.497986 175.124649,835.133423 
	C180.151917,826.232727 188.696518,821.216675 196.716736,815.123413 
	C199.685532,821.067810 202.347382,827.158081 204.628204,833.621948 
	C201.176819,833.527100 199.828461,835.306030 197.978012,837.575623 
	C194.402237,841.961304 190.092834,845.803589 185.776108,849.508240 
	C183.456833,851.498718 180.491272,852.736145 177.817322,854.313354 
	C175.510925,849.144531 173.204529,843.975708 170.831573,838.438904 
z"/>
<path fill="#7536B3" opacity="1.000000" stroke="none" 
	d="
M559.145996,877.354675 
	C569.834167,874.909668 580.448303,872.498779 589.956665,866.039185 
	C593.583801,873.205505 597.016785,880.679626 600.900879,889.135986 
	C594.035645,889.135986 588.193848,889.135681 582.352051,889.136292 
	C581.191895,889.136414 580.013550,889.007080 578.874512,889.163269 
	C569.311279,890.474792 561.281921,889.209839 559.145996,877.354675 
z"/>
<path fill="#4948C9" opacity="1.000000" stroke="none" 
	d="
M177.855911,854.661682 
	C180.491272,852.736145 183.456833,851.498718 185.776108,849.508240 
	C190.092834,845.803589 194.402237,841.961304 197.978012,837.575623 
	C199.828461,835.306030 201.176819,833.527100 204.655426,833.993652 
	C207.112823,837.984863 209.161972,841.977905 211.572601,845.896729 
	C211.691360,846.399231 211.365707,847.501038 211.217789,847.477722 
	C203.011490,846.181458 199.082993,852.907715 193.729935,856.841187 
	C190.211044,859.426941 187.567932,863.462585 181.993988,863.079041 
	C180.339157,860.408264 179.116821,857.709167 177.855911,854.661682 
z"/>
<path fill="#4948C9" opacity="1.000000" stroke="none" 
	d="
M215.610687,837.169128 
	C218.287628,840.906921 214.510529,842.491760 212.496429,844.942200 
	C213.229797,842.467834 214.292969,839.929626 215.610687,837.169128 
z"/>
<path fill="#4355CF" opacity="1.000000" stroke="none" 
	d="
M232.605591,797.092834 
	C232.485458,798.233032 232.111618,799.581909 231.409241,800.968994 
	C231.504425,799.771912 231.928162,798.536743 232.605591,797.092834 
z"/>
<path fill="#4048C2" opacity="1.000000" stroke="none" 
	d="
M299.107086,131.694275 
	C298.581268,131.791992 297.980255,131.651245 297.191223,131.256485 
	C297.679443,131.153580 298.355652,131.304703 299.107086,131.694275 
z"/>
<path fill="#9037A9" opacity="1.000000" stroke="none" 
	d="
M567.741577,618.238281 
	C567.742065,617.694763 567.979309,617.006531 568.453430,616.143860 
	C568.452942,616.677429 568.215637,617.385559 567.741577,618.238281 
z"/>
<path fill="#4D39BA" opacity="1.000000" stroke="none" 
	d="
M188.119720,878.327759 
	C188.343048,878.333496 188.579895,878.646240 188.855545,879.260376 
	C188.640640,879.252747 188.386948,878.943726 188.119720,878.327759 
z"/>
<path fill="#7540BC" opacity="1.000000" stroke="none" 
	d="
M221.093613,378.135620 
	C221.192932,378.003387 221.385086,378.046722 221.691925,378.210907 
	C221.816605,378.287567 221.502747,378.392639 221.502747,378.392639 
	C221.502747,378.392639 221.196442,378.266998 221.093613,378.135620 
z"/>
<path fill="#6539B8" opacity="1.000000" stroke="none" 
	d="
M645.178772,823.119385 
	C645.296204,823.007629 645.479736,823.080627 645.758667,823.289551 
	C645.869873,823.386047 645.542786,823.438049 645.542786,823.438049 
	C645.542786,823.438049 645.260620,823.264465 645.178772,823.119385 
z"/>
<path fill="#FEFEFE" opacity="1.000000" stroke="none" 
	d="
M537.882446,824.328125 
	C537.882446,824.328125 537.898682,824.702515 538.013428,824.850586 
	C538.880615,827.084900 539.786926,829.133362 540.313660,831.275146 
	C540.539551,832.193665 539.976074,833.306213 539.387573,834.426758 
	C525.387329,834.522949 511.770844,834.522949 497.148804,834.522949 
	C501.770477,823.175842 506.013672,812.757996 510.318451,802.002380 
	C513.176758,795.293030 515.973450,788.921509 519.210876,781.545715 
	C520.978455,785.593628 522.443359,788.948303 524.021362,792.651367 
	C528.234741,802.534973 532.334900,812.070312 536.684570,822.180420 
	C537.250183,823.279480 537.566345,823.803833 537.882446,824.328125 
z"/>
<path fill="#FEFEFE" opacity="1.000000" stroke="none" 
	d="
M817.455200,823.270508 
	C820.725525,814.914917 823.917542,806.879639 827.145813,798.453369 
	C829.907837,792.720642 832.633606,787.378845 835.711487,781.346924 
	C838.512268,787.935974 841.158569,794.161499 844.025879,800.689270 
	C847.032104,807.804871 849.817383,814.618286 852.825317,821.714722 
	C853.762268,823.871826 854.476379,825.745850 855.462036,828.109436 
	C855.733521,828.598999 856.026550,828.993713 856.026550,828.993713 
	C856.502197,830.694275 856.977844,832.394836 857.537231,834.394592 
	C842.655579,834.394592 828.193054,834.394592 813.073364,834.394592 
	C814.626709,830.494995 816.001770,827.042908 817.455200,823.270508 
z"/>
<path fill="#9037A9" opacity="1.000000" stroke="none" 
	d="
M830.430847,855.337158 
	C828.881653,856.082886 827.170166,856.491455 825.458679,856.900085 
	C825.417358,856.046570 825.375977,855.193115 825.334656,854.339661 
	C826.979309,854.559753 828.623962,854.779846 830.430847,855.337158 
z"/>
<path fill="#7536B3" opacity="1.000000" stroke="none" 
	d="
M856.184448,828.869202 
	C856.026550,828.993713 855.733521,828.598999 855.686035,828.357910 
	C855.873108,828.326050 856.107727,828.535400 856.184448,828.869202 
z"/>
<path fill="#5737B8" opacity="1.000000" stroke="none" 
	d="
M537.911255,824.021851 
	C537.566345,823.803833 537.250183,823.279480 536.939636,822.428955 
	C537.276794,822.640320 537.608459,823.177979 537.911255,824.021851 
z"/>
</svg>